<svg width="100" height="100" viewBox="0 0 100 100" xmlns="http://www.w3.org/2000/svg">
	<g stroke="#999" stroke-width="20" transform="translate(10 15) scale(0.15, 0.15) rotate(-30)"><path d="M 0 0 L 0 200 M 100 100 L 100 200 M 200 0 L 200 200" /></g>
	<circle cx="60" cy="60" r="40" fill="#ecc400" />
	<g transform="translate(60 50) scale(0.25) translate(-116 0)" stroke-linecap="round" fill-rule="nonzero" fill="#fff"><path d="M 11.133 19.288 L 0 11.476 A 28.708 28.708 0 0 1 3.926 6.732 A 21.62 21.62 0 0 1 9.839 2.638 A 26.259 26.259 0 0 1 15.571 0.79 Q 19.377 0.001 24.023 0.001 A 36.14 36.14 0 0 1 30.65 0.572 Q 34.419 1.275 37.403 2.847 A 18.939 18.939 0 0 1 40.503 4.884 A 15.918 15.918 0 0 1 46.354 15.676 A 23.167 23.167 0 0 1 46.533 18.605 A 30.258 30.258 0 0 1 46.013 24.344 A 22.993 22.993 0 0 1 44.165 30.006 A 34.713 34.713 0 0 1 40.451 35.989 A 44.094 44.094 0 0 1 37.427 39.528 Q 34.081 43.06 29.476 47.151 A 199.348 199.348 0 0 1 26.538 49.708 A 906.044 906.044 0 0 1 24.27 51.639 Q 19.736 55.485 18.506 56.398 L 48.73 56.398 L 48.73 68.995 L 0.195 68.995 L 0.195 57.472 A 419.81 419.81 0 0 0 7.8 50.929 A 335.235 335.235 0 0 0 14.697 44.679 A 256.114 256.114 0 0 0 18.496 41.067 Q 22.098 37.566 24.473 34.919 A 70.723 70.723 0 0 0 24.805 34.547 Q 27.993 30.944 29.912 27.614 A 29.45 29.45 0 0 0 30.347 26.832 A 16.149 16.149 0 0 0 32.324 19.093 Q 32.324 15.919 29.932 14.064 A 8.166 8.166 0 0 0 27.19 12.702 Q 25.505 12.208 23.34 12.208 Q 18.799 12.208 15.918 14.308 A 19.305 19.305 0 0 0 11.133 19.288 Z M 184.029 44.287 A 16.461 16.461 0 0 1 186.304 40.187 Q 189.697 35.695 195.41 33.107 Q 190.696 30.792 188.032 27.625 A 15.609 15.609 0 0 1 187.231 26.588 A 14.57 14.57 0 0 1 184.871 21.427 A 13.819 13.819 0 0 1 184.521 18.312 A 20.37 20.37 0 0 1 185.26 12.671 A 14.862 14.862 0 0 1 190.771 4.689 Q 197.021 0.001 208.203 0.001 Q 219.092 0.001 225.439 4.542 A 14.737 14.737 0 0 1 231.515 14.63 A 22.594 22.594 0 0 1 231.787 18.214 A 11.356 11.356 0 0 1 230.347 23.829 Q 228.906 26.417 226.611 28.517 Q 224.538 30.414 220.513 32.709 A 73.802 73.802 0 0 1 219.629 33.204 Q 224.832 35.738 227.52 37.979 A 16.438 16.438 0 0 1 227.93 38.331 Q 230.615 40.724 232.007 43.8 A 15.675 15.675 0 0 1 233.288 48.6 A 19.293 19.293 0 0 1 233.398 50.685 A 21.547 21.547 0 0 1 232.52 57.003 A 16.428 16.428 0 0 1 226.88 65.236 A 21.473 21.473 0 0 1 219.956 68.819 Q 216.904 69.789 213.207 70.168 A 49.109 49.109 0 0 1 208.203 70.411 A 47.198 47.198 0 0 1 201.22 69.927 Q 194.116 68.863 189.551 65.455 A 16.034 16.034 0 0 1 183.275 55.018 A 24.537 24.537 0 0 1 182.91 50.685 A 17.893 17.893 0 0 1 184.029 44.287 Z M 196.729 50.783 A 8.641 8.641 0 0 0 197.329 54.053 A 7.985 7.985 0 0 0 199.463 57.033 Q 202.093 59.381 207.75 59.47 A 28.642 28.642 0 0 0 208.203 59.474 A 22.46 22.46 0 0 0 211.321 59.273 Q 214.971 58.76 216.919 56.935 A 8.199 8.199 0 0 0 219.623 51.03 A 9.945 9.945 0 0 0 219.629 50.685 A 10.316 10.316 0 0 0 219.012 47.059 A 9.217 9.217 0 0 0 216.821 43.702 Q 214.042 40.948 208.322 38.241 A 62.109 62.109 0 0 0 208.203 38.185 A 50.307 50.307 0 0 0 204.997 39.727 Q 201.85 41.39 200.009 43.072 A 12.486 12.486 0 0 0 199.365 43.702 A 9.519 9.519 0 0 0 196.806 49.35 A 12.835 12.835 0 0 0 196.729 50.783 Z M 197.998 18.116 A 8.204 8.204 0 0 0 198.172 19.849 A 5.916 5.916 0 0 0 198.975 21.827 A 8.422 8.422 0 0 0 199.844 22.937 Q 200.334 23.474 200.975 24.029 A 20.938 20.938 0 0 0 202.222 25.026 A 19.255 19.255 0 0 0 204.304 26.358 Q 205.364 26.95 206.622 27.512 A 39.015 39.015 0 0 0 208.203 28.175 Q 213.051 26.062 215.367 24.019 A 9.924 9.924 0 0 0 216.113 23.292 A 10.087 10.087 0 0 0 217.359 21.645 Q 218.013 20.548 218.218 19.43 A 5.658 5.658 0 0 0 218.311 18.409 A 7.111 7.111 0 0 0 216.181 13.198 A 8.592 8.592 0 0 0 215.967 12.99 Q 213.722 10.885 208.656 10.796 A 25.79 25.79 0 0 0 208.203 10.792 A 24.181 24.181 0 0 0 205.524 10.93 Q 201.843 11.342 200.195 12.99 Q 197.998 15.187 197.998 18.116 Z M 153.32 57.814 L 119.385 57.814 L 119.385 45.118 L 152.393 1.417 L 166.504 1.417 L 166.504 45.997 L 174.805 45.997 L 174.805 57.814 L 166.504 57.814 L 166.504 68.995 L 153.32 68.995 L 153.32 57.814 Z M 153.32 19.484 L 132.813 45.997 L 153.32 45.997 L 153.32 19.484 Z M 59.197 25.867 Q 60.49 14.772 65.088 8.595 A 20.43 20.43 0 0 1 76.901 0.927 Q 80.342 0.059 84.458 0.005 A 41.889 41.889 0 0 1 85.01 0.001 Q 95.395 0.001 101.581 4.967 A 19.719 19.719 0 0 1 105.029 8.546 Q 111.018 16.546 111.4 32.933 A 97.521 97.521 0 0 1 111.426 35.206 A 82.476 82.476 0 0 1 110.92 44.686 Q 109.783 54.479 106.09 60.41 A 21.957 21.957 0 0 1 105.029 61.964 A 20.366 20.366 0 0 1 93.522 69.499 Q 89.693 70.509 85.01 70.509 Q 74.394 70.509 68.17 65.245 A 19.882 19.882 0 0 1 65.088 61.964 Q 59.1 53.964 58.717 37.577 A 97.521 97.521 0 0 1 58.691 35.304 A 81.795 81.795 0 0 1 59.197 25.867 Z M 72.9 35.304 A 80.461 80.461 0 0 0 73.118 41.443 Q 73.695 48.955 75.806 53.053 Q 78.446 58.178 83.889 58.646 A 13.097 13.097 0 0 0 85.01 58.693 A 10.869 10.869 0 0 0 89.185 57.926 Q 92.393 56.604 94.263 53.004 A 20.338 20.338 0 0 0 95.817 48.837 Q 97.217 43.543 97.217 35.206 A 79.137 79.137 0 0 0 96.996 29.068 Q 96.536 23.178 95.117 19.387 A 16.994 16.994 0 0 0 94.263 17.457 A 11.316 11.316 0 0 0 91.772 14.189 Q 89.45 12.133 86.07 11.859 A 13.161 13.161 0 0 0 85.01 11.818 Q 79.42 11.818 76.503 16.297 A 13.291 13.291 0 0 0 75.806 17.506 A 20.532 20.532 0 0 0 74.281 21.658 Q 73.208 25.776 72.969 31.737 A 89.134 89.134 0 0 0 72.9 35.304 Z"/></g>
</svg>